<?xml version="1.0" encoding="UTF-8"?>
<svg id="Layer_1" data-name="Layer 1" xmlns="http://www.w3.org/2000/svg" viewBox="0 0 548.9 116.78">
  <defs>
    <style>
      .cls-1 {
        fill: #de2226;
      }

      .cls-2 {
        fill: #36474f;
      }
    </style>
  </defs>
  <path class="cls-1" d="m0,28.07c0-4.62.81-8.71,2.42-12.26,1.61-3.55,3.76-6.5,6.45-8.87,2.58-2.26,5.51-3.98,8.79-5.16,3.28-1.18,6.59-1.77,9.92-1.77s6.64.59,9.92,1.77c3.28,1.18,6.26,2.9,8.95,5.16,2.58,2.37,4.68,5.32,6.29,8.87,1.61,3.55,2.42,7.64,2.42,12.26v5.81h-16.45v-5.81c0-3.98-1.1-6.91-3.31-8.79-2.21-1.88-4.81-2.82-7.82-2.82s-5.62.94-7.82,2.82c-2.21,1.88-3.31,4.81-3.31,8.79v60.65c0,3.98,1.1,6.91,3.31,8.79,2.2,1.88,4.81,2.82,7.82,2.82s5.62-.94,7.82-2.82c2.2-1.88,3.31-4.81,3.31-8.79v-21.61h-13.07v-14.52h29.52v36.13c0,4.84-.81,8.98-2.42,12.42-1.61,3.44-3.71,6.29-6.29,8.55-2.69,2.37-5.67,4.14-8.95,5.32-3.28,1.18-6.59,1.77-9.92,1.77s-6.64-.59-9.92-1.77c-3.28-1.18-6.21-2.96-8.79-5.32-2.69-2.26-4.84-5.11-6.45-8.55-1.61-3.44-2.42-7.58-2.42-12.42V28.07Z"/>
  <path class="cls-1" d="m110.01,34.03v81.78h-16.45v-7.9h-.32c-1.72,2.58-3.79,4.71-6.21,6.37s-5.51,2.5-9.27,2.5c-2.04,0-4.09-.35-6.13-1.05-2.04-.7-3.87-1.85-5.48-3.47-1.61-1.61-2.9-3.68-3.87-6.21-.97-2.53-1.45-5.62-1.45-9.27v-62.75h16.45v56.62c0,3.01.7,5.38,2.1,7.1,1.4,1.72,3.39,2.58,5.97,2.58,3.12,0,5.27-.97,6.45-2.9,1.18-1.94,1.77-4.73,1.77-8.39v-55h16.45Z"/>
  <path class="cls-1" d="m123.56,17.42V.97h16.45v16.45h-16.45Zm0,98.39V34.03h16.45v81.78h-16.45Z"/>
  <path class="cls-1" d="m153.56,34.03V9.19h16.45v24.84h10.16v12.9h-10.16v45.33c0,1.94.19,3.44.56,4.52.38,1.08.99,1.88,1.85,2.42.86.54,1.91.86,3.15.97,1.23.11,2.77.16,4.6.16v15.48h-6.77c-3.77,0-6.91-.59-9.44-1.77-2.53-1.18-4.54-2.69-6.05-4.52-1.51-1.83-2.61-3.9-3.31-6.21-.7-2.31-1.05-4.54-1.05-6.69v-49.68h-8.23v-12.9h8.23Z"/>
  <path class="cls-2" d="m180.01,115.81L205.66.97h13.71l25.65,114.85h-16.45l-4.84-24.68h-22.42l-4.84,24.68h-16.45Zm40.65-40.16l-8.06-41.62h-.32l-8.06,41.62h16.45Z"/>
  <path class="cls-2" d="m252.11,115.81V34.03h16.45v8.71c3.33-3.01,6.61-5.38,9.84-7.1,3.23-1.72,7.2-2.58,11.94-2.58v17.42c-1.61-.65-3.28-.97-5-.97s-3.58.3-5.56.89c-1.99.59-3.79,1.59-5.4,2.98-1.72,1.4-3.12,3.23-4.19,5.48-1.08,2.26-1.61,5.06-1.61,8.39v48.55h-16.45Z"/>
  <path class="cls-2" d="m312.44,92.26c0,2.58.73,4.57,2.18,5.97,1.45,1.4,3.41,2.1,5.89,2.1,3.12,0,5.19-.91,6.21-2.74,1.02-1.83,1.64-3.65,1.85-5.48h16.45c0,7.21-2.21,13.01-6.61,17.42-2.15,2.26-4.73,4.03-7.74,5.32-3.01,1.29-6.4,1.94-10.16,1.94-5.16,0-9.54-1.07-13.15-3.23-3.6-2.15-6.37-5-8.31-8.55-1.18-2.15-1.99-4.62-2.42-7.42-.43-2.79-.65-5.86-.65-9.19v-26.94c0-3.33.21-6.4.65-9.19.43-2.8,1.23-5.27,2.42-7.42,1.94-3.55,4.7-6.4,8.31-8.55,3.6-2.15,7.98-3.23,13.15-3.23,3.76,0,7.18.65,10.24,1.94,3.06,1.29,5.67,3.06,7.82,5.32,4.3,4.84,6.45,11.13,6.45,18.87h-16.45c0-3.33-.73-5.78-2.18-7.34-1.45-1.56-3.42-2.34-5.89-2.34s-4.44.78-5.89,2.34c-1.45,1.56-2.18,3.9-2.18,7.02v33.39Z"/>
  <path class="cls-2" d="m352.76,115.81V.97h16.45v40.97h.32c1.72-2.58,3.79-4.7,6.21-6.37,2.42-1.67,5.51-2.5,9.27-2.5,2.04,0,4.09.35,6.13,1.05,2.04.7,3.87,1.85,5.48,3.47,1.61,1.61,2.9,3.68,3.87,6.21.97,2.53,1.45,5.62,1.45,9.27v62.75h-16.45v-56.62c0-3.01-.7-5.38-2.1-7.1-1.4-1.72-3.39-2.58-5.97-2.58-3.12,0-5.27.97-6.45,2.9-1.18,1.94-1.77,4.73-1.77,8.39v55h-16.45Z"/>
  <path class="cls-2" d="m415.51,17.42V.97h16.45v16.45h-16.45Zm0,98.39V34.03h16.45v81.78h-16.45Z"/>
  <path class="cls-2" d="m495.67,34.03l-21.29,81.78h-14.52l-21.29-81.78h17.42l10.97,52.26h.32l10.97-52.26h17.42Z"/>
  <path class="cls-2" d="m548.9,81.14h-32.58v11.13c0,2.58.73,4.57,2.18,5.97,1.45,1.4,3.41,2.1,5.89,2.1,3.12,0,5.19-.91,6.21-2.74,1.02-1.83,1.64-3.65,1.85-5.48h16.45c0,7.21-2.21,13.01-6.61,17.42-2.15,2.26-4.73,4.03-7.74,5.32-3.01,1.29-6.4,1.94-10.16,1.94-5.16,0-9.54-1.07-13.15-3.23-3.6-2.15-6.37-5-8.31-8.55-1.18-2.15-1.99-4.62-2.42-7.42-.43-2.79-.65-5.86-.65-9.19v-26.94c0-3.33.21-6.4.65-9.19.43-2.8,1.23-5.27,2.42-7.42,1.94-3.55,4.7-6.4,8.31-8.55,3.6-2.15,7.98-3.23,13.15-3.23,3.76,0,7.18.65,10.24,1.94,3.06,1.29,5.67,3.06,7.82,5.32,4.3,4.84,6.45,10.92,6.45,18.23v22.58Zm-32.58-12.9h16.13v-9.36c0-3.12-.73-5.46-2.18-7.02-1.45-1.56-3.42-2.34-5.89-2.34s-4.44.78-5.89,2.34c-1.45,1.56-2.18,3.9-2.18,7.02v9.36Z"/>
</svg>