<?xml version="1.0" encoding="UTF-8"?>
<svg id="Layer_1" data-name="Layer 1" xmlns="http://www.w3.org/2000/svg" viewBox="0 0 113.27 114.06">
  <defs>
    <style>
      .cls-1 {
        fill: #de2226;
      }

      .cls-2 {
        fill: #36474f;
      }
    </style>
  </defs>
  <path class="cls-1" d="m0,27.41c0-4.51.79-8.51,2.36-11.97,1.58-3.47,3.68-6.35,6.3-8.66,2.52-2.21,5.38-3.88,8.59-5.04,3.2-1.15,6.43-1.73,9.69-1.73s6.48.58,9.69,1.73c3.2,1.16,6.12,2.84,8.74,5.04,2.52,2.31,4.57,5.2,6.14,8.66,1.58,3.47,2.36,7.46,2.36,11.97v5.67h-16.07v-5.67c0-3.88-1.08-6.75-3.23-8.59-2.15-1.84-4.7-2.76-7.64-2.76s-5.49.92-7.64,2.76c-2.15,1.84-3.23,4.7-3.23,8.59v59.23c0,3.89,1.08,6.75,3.23,8.59,2.15,1.84,4.7,2.76,7.64,2.76s5.49-.92,7.64-2.76c2.15-1.84,3.23-4.7,3.23-8.59v-21.11h-12.76v-14.18h28.83v35.29c0,4.73-.79,8.77-2.36,12.13-1.58,3.36-3.62,6.14-6.14,8.35-2.63,2.31-5.54,4.04-8.74,5.2-3.21,1.16-6.43,1.73-9.69,1.73s-6.49-.58-9.69-1.73c-3.21-1.15-6.07-2.89-8.59-5.2-2.63-2.21-4.73-4.99-6.3-8.35-1.58-3.36-2.36-7.4-2.36-12.13V27.41Z"/>
  <path class="cls-2" d="m49.78,113.11L74.83.95h13.39l25.05,112.17h-16.07l-4.73-24.1h-21.9l-4.73,24.1h-16.07Zm39.7-39.23l-7.88-40.64h-.31l-7.88,40.64h16.07Z"/>
</svg>