<?xml version="1.0" encoding="UTF-8"?>
<svg id="Layer_1" data-name="Layer 1" xmlns="http://www.w3.org/2000/svg" viewBox="0 0 1500 1500">
  <defs>
    <style>
      .cls-1 {
        fill: #fff;
      }

      .cls-2 {
        fill: #aab4c0;
      }

      .cls-3 {
        opacity: .9;
      }
    </style>
  </defs>
  <rect class="cls-2" width="1500" height="1500"/>
  <g id="QQ4B8T" class="cls-3">
    <g>
      <path class="cls-1" d="m723.93,802.54c0-25.96-.39-52.66.07-79.35,1.84-108.39,3.86-216.78,6.03-325.17.34-17.08-3.12-32.66-13.36-46.63-1.73-2.36-2.1-6.07-2.2-9.19-1.21-36.6-2.29-73.2-3.19-109.8-.06-2.29,1.18-5.1,2.73-6.86,17.88-20.34,57.32-20.82,76.06-.77,2.11,2.25,3.32,6.31,3.25,9.49-.75,35.63-1.75,71.25-2.96,106.86-.14,3.98-1.14,8.48-3.27,11.74-7.83,11.99-12.04,24.83-11.78,39.17,2.64,144.41,5.05,288.83,8.2,433.24.27,12.52,3.74,25.55,8.43,37.26,9.67,24.13,38.91,29.82,58.18,12.27,3.63-3.3,6.09-7.96,9.9-10.98,3.79-3.01,9.74-7.57,12.68-6.37,4.12,1.68,9.2,8.28,8.87,12.37-1.37,16.6-4.22,33.12-7.46,49.48-1.05,5.28-4.21,10.61-7.69,14.86-18.15,22.16-15.08,54.83,8.42,77.9,22.27,21.87,39.98,47.06,50.03,76.48,22.19,64.91,3.2,145.69-72.32,177.93-59.52,25.41-120.08,32.92-182.05,9.11-24.64-9.47-46.46-23.73-65.48-41.98-39.54-37.96-48.99-87.7-26.83-141.06,12.29-29.58,30.06-55.54,51.76-79.16,8.07-8.78,14.61-19.59,19.49-30.52,5.55-12.43,2.78-25.14-4.89-36.66-4.74-7.13-9.54-14.33-13.23-22.02-26.01-54.15,12.52-101.89,58.1-114.77,10.41-2.94,21.27-4.27,34.52-6.85Z"/>
      <path class="cls-1" d="m694.14,274.21v-18.68c6.75,4.2,11.55,7.19,16.35,10.17-4.92,2.56-9.84,5.12-16.35,8.51Z"/>
      <path class="cls-1" d="m811.03,259.29v14.11c-6.41-2.74-11.56-4.94-16.71-7.14,4.76-3.29,9.52-6.57,14.28-9.86.81.96,1.62,1.92,2.44,2.89Z"/>
      <path class="cls-1" d="m810.91,291.5v14.21c-6.54-3.1-11.56-5.48-16.58-7.86,4.78-3.11,9.56-6.23,14.34-9.34.75,1,1.5,1.99,2.24,2.99Z"/>
      <path class="cls-1" d="m810.8,320.91v18.46c-6.85-4.35-11.68-7.41-16.51-10.48,5.02-2.43,10.05-4.86,16.51-7.99Z"/>
      <path class="cls-1" d="m694.39,287.52c6.62,4.01,11.36,6.88,16.09,9.75-4.81,2.69-9.62,5.38-16.09,8.99v-18.75Z"/>
      <path class="cls-1" d="m694.05,339.4v-18.56c6.42,3.32,11.41,5.9,16.41,8.48-4.72,2.9-9.44,5.79-16.41,10.07Z"/>
    </g>
  </g>
</svg>